<svg width="256" height="256" viewBox="0 0 256 256" xmlns="http://www.w3.org/2000/svg">
    <!-- background ellipse (shadow effect simplified to solid gray) -->
    <ellipse cx="128" cy="174" rx="78" ry="18" fill="#E5E7EB"/>

    <!-- cloud -->
    <path fill="#0078D4"
          d="M93 92c6-20 25-34 46-34 19 0 35 10 43 26 1 0 3-1 5-1 20 0 36 16 36 36s-16 36-36 36H86
           c-18 0-32-14-32-32 0-16 12-29 27-31 2-0 4-0 6-0 2-0 4-0 6-0z"/>

    <!-- folder -->
    <g transform="translate(82,106)">
        <path fill="#FFFFFF" stroke="#000000" stroke-opacity="0.12" stroke-width="2"
              d="M12 18h88a8 8 0 0 1 8 8v46a8 8 0 0 1-8 8H8a8 8 0 0 1-8-8V26a8 8 0 0 1 8-8h4z"/>
        <path fill="#FFFFFF" stroke="#000000" stroke-opacity="0.12" stroke-width="2"
              d="M12 18l12-10h22a8 8 0 0 1 8 8v2H12z"/>
        <text x="20" y="58" font-family="Segoe UI, Arial, sans-serif"
              font-size="28" font-weight="700" fill="#0078D4">fs.FS</text>
    </g>

    <!-- Go badge -->
    <g transform="translate(175,157)">
        <rect x="0" y="0" rx="8" ry="8" width="44" height="26"
              fill="#FFFFFF" stroke="#000000" stroke-opacity="0.12" stroke-width="2"/>
        <text x="22" y="18" text-anchor="middle"
              font-family="Segoe UI, Arial, sans-serif" font-size="18" font-weight="700" fill="#1F2937">Go</text>
    </g>
</svg>
